# xmcd
#
# Track frame offsets:
#	150
#	18004
#	31264
#	44446
#	54095
#	71129
#	87397
#	98336
#	111511
#	122821
#	136939
#
# Disc length: 2054 seconds
# Revision: 0
# Processed by: cddbd v1.5.2PL0 Copyright (c) Steve Scherf et al.
# Submitted via: dBpowerAMP V12.0
#
DISCID=8908040b
DTITLE=Tim Carroll and Midnight Orange - Pure as Coal
DYEAR=1900
DGENRE=Rock and Roll
TTITLE0=Don't Make Nothin' in the USA
TTITLE1=Feels No Pain
TTITLE2=In Between Drinks
TTITLE3=You Come Home
TTITLE4=Pure As Coal
TTITLE5=Talk to God
TTITLE6=Tell Me Lies
TTITLE7=The Way it Went Down
TTITLE8=What a Way to Go
TTITLE9=You Come Home
TTITLE10=You're a Star
EXTD=
EXTT0=
EXTT1=
EXTT2=
EXTT3=
EXTT4=
EXTT5=
EXTT6=
EXTT7=
EXTT8=
EXTT9=
EXTT10=
PLAYORDER=
